<svg width="19" height="18" viewBox="0 0 19 18" fill="none" xmlns="http://www.w3.org/2000/svg">
<path d="M7.49998 12.25C7.30704 12.2352 7.12755 12.1455 6.99998 12L3.99998 8.99998C3.93314 8.86003 3.91133 8.70279 3.93756 8.54993C3.96379 8.39707 4.03676 8.2561 4.14643 8.14643C4.2561 8.03676 4.39707 7.96379 4.54993 7.93756C4.70279 7.91133 4.86003 7.93314 4.99998 7.99998L7.46998 10.47L16 1.99998C16.1399 1.93314 16.2972 1.91133 16.45 1.93756C16.6029 1.96379 16.7439 2.03676 16.8535 2.14643C16.9632 2.2561 17.0362 2.39707 17.0624 2.54993C17.0886 2.70279 17.0668 2.86003 17 2.99998L7.99998 12C7.87241 12.1455 7.69292 12.2352 7.49998 12.25Z" fill="#A7ACB6"/>
<path d="M9.00011 18C7.39157 17.9974 5.81313 17.5638 4.42903 16.7442C3.04494 15.9247 1.90578 14.7491 1.13011 13.34C0.5413 12.2896 0.176946 11.1285 0.0601083 9.92999C-0.122911 8.17207 0.215718 6.39917 1.03375 4.83246C1.85179 3.26574 3.11302 1.97456 4.66011 1.11999C5.71048 0.531181 6.87164 0.166828 8.07011 0.0499901C9.26426 -0.0773472 10.4718 0.0383078 11.6201 0.38999C11.7226 0.410462 11.8196 0.452115 11.905 0.51228C11.9905 0.572446 12.0624 0.649795 12.1162 0.739371C12.1699 0.828948 12.2044 0.928774 12.2174 1.03245C12.2303 1.13613 12.2215 1.24137 12.1914 1.34143C12.1613 1.44148 12.1106 1.53415 12.0427 1.61349C11.9747 1.69282 11.8909 1.75708 11.7966 1.80214C11.7023 1.84719 11.5997 1.87205 11.4952 1.87513C11.3908 1.8782 11.2869 1.85942 11.1901 1.81999C10.2188 1.52738 9.19877 1.43218 8.19011 1.53999C7.19294 1.64126 6.22673 1.94405 5.35011 2.42999C4.50524 2.89609 3.75825 3.52085 3.15011 4.26999C2.52397 5.03315 2.0564 5.91358 1.7748 6.85971C1.49319 7.80584 1.4032 8.79865 1.51011 9.77999C1.61138 10.7772 1.91417 11.7434 2.40011 12.62C2.86621 13.4649 3.49096 14.2118 4.24011 14.82C5.00327 15.4461 5.8837 15.9137 6.82982 16.1953C7.77595 16.4769 8.76877 16.5669 9.75011 16.46C10.7473 16.3587 11.7135 16.0559 12.5901 15.57C13.435 15.1039 14.182 14.4791 14.7901 13.73C15.4162 12.9668 15.8838 12.0864 16.1654 11.1403C16.447 10.1941 16.537 9.20133 16.4301 8.21999C16.4102 8.0118 16.4738 7.80423 16.607 7.64294C16.7401 7.48166 16.9319 7.37988 17.1401 7.35999C17.3483 7.3401 17.5559 7.40373 17.7172 7.53688C17.8784 7.67003 17.9802 7.8618 18.0001 8.06999C18.1822 9.82896 17.8421 11.6026 17.0222 13.1694C16.2023 14.7362 14.9391 16.0268 13.3901 16.88C12.3286 17.4929 11.1495 17.8746 9.93011 18H9.00011Z" fill="#A7ACB6"/>
</svg>
