<svg width="20" height="16" viewBox="0 0 20 16" fill="none" xmlns="http://www.w3.org/2000/svg">
<path d="M15.0998 15.4H7.64579C5.71704 15.4286 3.85162 14.712 2.43809 13.3994C1.02456 12.0869 0.171923 10.2796 0.057789 8.35398C0.00986515 7.35333 0.165618 6.35337 0.515608 5.41469C0.865598 4.47602 1.40254 3.61819 2.09388 2.89318C2.78523 2.16818 3.61659 1.59109 4.53757 1.19691C5.45856 0.802721 6.44999 0.599641 7.45179 0.599976C9.07238 0.605981 10.6466 1.14139 11.9348 2.1247C13.223 3.108 14.1546 4.48533 14.5878 6.04698C15.3353 5.94329 16.0969 6.01999 16.8087 6.27067C17.5206 6.52136 18.1622 6.93875 18.6798 7.48798C19.1226 7.95697 19.4632 8.51279 19.6801 9.12025C19.897 9.72771 19.9854 10.3736 19.9398 11.017C19.837 12.2242 19.2804 13.3477 18.3823 14.161C17.4842 14.9743 16.3113 15.417 15.0998 15.4ZM1.05679 8.30898C1.16003 9.97714 1.90257 11.5412 3.12986 12.6758C4.35715 13.8103 5.97467 14.4279 7.64579 14.4H15.0998C16.0578 14.4169 16.9866 14.07 17.699 13.4292C18.4114 12.7884 18.8544 11.9014 18.9388 10.947C18.9776 10.3727 18.8818 9.79719 18.6592 9.26637C18.4365 8.73554 18.0931 8.26399 17.6562 7.88921C17.2192 7.51443 16.7009 7.24677 16.1424 7.1075C15.5838 6.96823 15.0005 6.96121 14.4388 7.08698L14.2388 7.13298L13.9698 7.00598C13.9006 6.96193 13.8409 6.90461 13.794 6.83732C13.7472 6.77004 13.7141 6.69412 13.6968 6.61398C13.3781 5.19421 12.5866 3.9248 11.452 3.01382C10.3173 2.10283 8.90688 1.60432 7.45179 1.59998C6.58493 1.59963 5.72703 1.77539 4.93014 2.11659C4.13325 2.45779 3.41399 2.95733 2.81598 3.58489C2.21797 4.21245 1.75368 4.95496 1.45128 5.76736C1.14887 6.57977 1.01466 7.44514 1.05679 8.31098V8.30898Z" fill="#43946C"/>
</svg>
