<svg width="84" height="85" viewBox="0 0 84 85" fill="none" xmlns="http://www.w3.org/2000/svg">
<circle cx="42" cy="42" r="42" fill="#ED6E74"/>
<path d="M59.3372 16.3052L55.0265 23.2317L51.2956 29.2269L47.4042 27.2437L50.176 20.4157L53.1287 13.1421C53.3105 12.6927 53.5838 12.286 53.9311 11.9478C54.2785 11.6097 54.6924 11.3475 55.1465 11.1778C55.6006 11.0081 56.0851 10.9347 56.5691 10.9622C57.0531 10.9898 57.526 11.1176 57.958 11.3377C58.3899 11.5578 58.7714 11.8652 59.0782 12.2406C59.385 12.616 59.6104 13.051 59.7401 13.5181C59.8698 13.9852 59.9009 14.4742 59.8316 14.954C59.7622 15.4338 59.5939 15.8939 59.3372 16.3052ZM34.7871 27.2437L30.8957 29.2269L27.9283 24.4572L22.8541 16.3052C22.5974 15.8939 22.4291 15.4338 22.3597 14.954C22.2903 14.4742 22.3215 13.9852 22.4512 13.5181C22.5809 13.051 22.8063 12.616 23.1131 12.2406C23.4199 11.8652 23.8013 11.5578 24.2333 11.3377C24.6652 11.1176 25.1382 10.9898 25.6222 10.9622C26.1062 10.9347 26.5906 11.0081 27.0448 11.1778C27.4989 11.3475 27.9128 11.6097 28.2601 11.9478C28.6075 12.286 28.8808 12.6927 29.0626 13.1421L32.3699 21.2882L34.7871 27.2437Z" fill="#D9E7EC"/>
<path d="M62.9453 66.6976C62.9445 71.3074 61.1129 75.7283 57.8533 78.9879C54.5936 82.2476 50.1728 84.0792 45.5629 84.08H38.8395C35.6799 84.0802 32.58 83.2192 29.8732 81.5896C27.1663 79.9599 24.9547 77.6234 23.4763 74.831C21.9979 72.0387 21.3086 68.8962 21.4824 65.7414C21.6562 62.5866 22.6866 59.5388 24.4628 56.9258L28.8764 50.4319L36.9048 38.6195H47.4976L58.0006 54.0672L59.9396 56.9199C61.8992 59.8041 62.9464 63.2107 62.9453 66.6976Z" fill="#E8EDF2"/>
<path d="M58.0026 54.0731C56.4746 56.2613 54.4411 58.0484 52.0747 59.2824C49.7082 60.5165 47.0789 61.1611 44.41 61.1614C37.3276 61.1614 31.2794 56.708 28.8784 50.4319L36.9068 38.6195H47.4996L58.0026 54.0731Z" fill="#D9E7EC"/>
<path d="M42.197 56.7471C51.3859 56.7471 58.835 49.2486 58.835 39.9988C58.835 30.749 51.3859 23.2505 42.197 23.2505C33.0081 23.2505 25.5591 30.749 25.5591 39.9988C25.5591 49.2486 33.0081 56.7471 42.197 56.7471Z" fill="#E8EDF2"/>
<path d="M33.4594 36.5708C33.1667 36.5708 32.8861 36.4546 32.6791 36.2476C32.4722 36.0407 32.356 35.76 32.356 35.4674V33.0899C32.356 32.7973 32.4722 32.5166 32.6791 32.3097C32.8861 32.1028 33.1667 31.9865 33.4594 31.9865C33.752 31.9865 34.0327 32.1028 34.2396 32.3097C34.4465 32.5166 34.5628 32.7973 34.5628 33.0899V35.4674C34.5628 35.76 34.4465 36.0407 34.2396 36.2476C34.0327 36.4546 33.752 36.5708 33.4594 36.5708ZM50.2503 36.5708C50.1054 36.571 49.9618 36.5426 49.8278 36.4872C49.6939 36.4318 49.5722 36.3506 49.4697 36.2481C49.3672 36.1456 49.2859 36.0238 49.2305 35.8899C49.1751 35.7559 49.1467 35.6124 49.1469 35.4674V33.0899C49.1469 32.7973 49.2632 32.5166 49.4701 32.3097C49.677 32.1028 49.9577 31.9865 50.2503 31.9865C50.543 31.9865 50.8236 32.1028 51.0305 32.3097C51.2375 32.5166 51.3537 32.7973 51.3537 33.0899V35.4674C51.3537 35.76 51.2375 36.0407 51.0305 36.2476C50.8236 36.4546 50.543 36.5708 50.2503 36.5708Z" fill="#444444"/>
<path d="M42.199 63.8106C39.1583 63.8106 36.2421 65.0185 34.092 67.1687C31.9418 69.3188 30.7339 72.235 30.7339 75.2758V82.0772C33.231 83.3962 36.0132 84.0836 38.8373 84.0795H45.5608C48.3849 84.0836 51.167 83.3962 53.6642 82.0772V75.2758C53.6642 72.235 52.4563 69.3188 50.3061 67.1687C48.156 65.0185 45.2398 63.8106 42.199 63.8106Z" fill="white"/>
<path d="M40.3988 52.3747C40.0167 52.3743 39.6385 52.2986 39.2856 52.152C38.9328 52.0054 38.6123 51.7907 38.3425 51.5202C38.0726 51.2496 37.8587 50.9286 37.713 50.5754C37.5673 50.2222 37.4926 49.8437 37.4932 49.4617V48.7261C37.4932 48.4334 37.6094 48.1528 37.8163 47.9458C38.0233 47.7389 38.3039 47.6226 38.5966 47.6226C38.8892 47.6226 39.1699 47.7389 39.3768 47.9458C39.5837 48.1528 39.7 48.4334 39.7 48.7261V49.4617C39.7 49.647 39.7736 49.8247 39.9047 49.9558C40.0357 50.0869 40.2135 50.1605 40.3988 50.1605C40.5842 50.1605 40.7619 50.0869 40.893 49.9558C41.024 49.8247 41.0976 49.647 41.0976 49.4617V46.1956C41.0976 45.9029 41.2139 45.6223 41.4208 45.4153C41.6277 45.2084 41.9084 45.0922 42.201 45.0922C42.4937 45.0922 42.7743 45.2084 42.9813 45.4153C43.1882 45.6223 43.3045 45.9029 43.3045 46.1956V49.4617C43.305 49.8437 43.2303 50.2222 43.0846 50.5754C42.9389 50.9286 42.725 51.2496 42.4552 51.5202C42.1853 51.7907 41.8648 52.0054 41.512 52.152C41.1592 52.2986 40.7809 52.3743 40.3988 52.3747Z" fill="#444444"/>
<path d="M44.0053 52.3747C43.6232 52.3743 43.2449 52.2986 42.8921 52.152C42.5392 52.0054 42.2187 51.7907 41.9489 51.5202C41.6791 51.2496 41.4652 50.9286 41.3195 50.5754C41.1737 50.2222 41.099 49.8437 41.0996 49.4617V46.1956C41.0996 45.9029 41.2159 45.6223 41.4228 45.4153C41.6297 45.2084 41.9104 45.0922 42.203 45.0922C42.4957 45.0922 42.7763 45.2084 42.9833 45.4153C43.1902 45.6223 43.3064 45.9029 43.3064 46.1956V49.4617C43.3064 49.647 43.3801 49.8247 43.5111 49.9558C43.6422 50.0869 43.8199 50.1605 44.0053 50.1605C44.1906 50.1605 44.3683 50.0869 44.4994 49.9558C44.6305 49.8247 44.7041 49.647 44.7041 49.4617V48.7261C44.7041 48.4334 44.8203 48.1528 45.0273 47.9458C45.2342 47.7389 45.5148 47.6226 45.8075 47.6226C46.1001 47.6226 46.3808 47.7389 46.5877 47.9458C46.7947 48.1528 46.9109 48.4334 46.9109 48.7261V49.4617C46.9115 49.8437 46.8368 50.2222 46.691 50.5754C46.5453 50.9286 46.3314 51.2496 46.0616 51.5202C45.7918 51.7907 45.4713 52.0054 45.1184 52.152C44.7656 52.2986 44.3873 52.3743 44.0053 52.3747Z" fill="#444444"/>
<path d="M42.196 46.2005C43.8406 46.2005 45.1737 44.8673 45.1737 43.2227C45.1737 41.5782 43.8406 40.245 42.196 40.245C40.5514 40.245 39.2183 41.5782 39.2183 43.2227C39.2183 44.8673 40.5514 46.2005 42.196 46.2005Z" fill="#FDB4BA"/>
</svg>
