<svg width="20" height="24" viewBox="0 0 20 24" fill="none" xmlns="http://www.w3.org/2000/svg">
<path d="M9.6 2.4C7.6224 2.4 6 4.0224 6 6V9.6H16.8C17.4365 9.6 18.047 9.85286 18.4971 10.3029C18.9471 10.753 19.2 11.3635 19.2 12V21.6C19.2 22.2365 18.9471 22.847 18.4971 23.2971C18.047 23.7471 17.4365 24 16.8 24H2.4C1.76348 24 1.15303 23.7471 0.702943 23.2971C0.252856 22.847 0 22.2365 0 21.6V12C0 11.3635 0.252856 10.753 0.702943 10.3029C1.15303 9.85286 1.76348 9.6 2.4 9.6H3.6V6C3.6 2.6976 6.2976 0 9.6 0C12.9024 0 15.6 2.6976 15.6 6C15.6 6.31826 15.4736 6.62348 15.2485 6.84853C15.0235 7.07357 14.7183 7.2 14.4 7.2C14.0817 7.2 13.7765 7.07357 13.5515 6.84853C13.3264 6.62348 13.2 6.31826 13.2 6C13.2 4.0224 11.5776 2.4 9.6 2.4ZM2.4 12V21.6H16.8V12H2.4Z" fill="#A7ACB6"/>
</svg>
